{
	"asset":{
		"generator":"Khronos glTF Blender I/O v5.2.40",
		"version":"2.0"
	},
	"scene":0,
	"scenes":[
		{
			"name":"Scene",
			"nodes":[
				0
			]
		}
	],
	"nodes":[
		{
			"mesh":0,
			"name":"Mesh_4"
		}
	],
	"materials":[
		{
			"doubleSided":true,
			"name":"Material_4",
			"normalTexture":{
				"index":0
			},
			"pbrMetallicRoughness":{
				"baseColorTexture":{
					"index":1
				},
				"metallicRoughnessTexture":{
					"index":2
				}
			}
		},
		{
			"doubleSided":true,
			"name":"Material_0",
			"normalTexture":{
				"index":3
			},
			"pbrMetallicRoughness":{
				"baseColorTexture":{
					"index":4
				},
				"metallicRoughnessTexture":{
					"index":5
				}
			}
		},
		{
			"doubleSided":true,
			"name":"Material_1",
			"normalTexture":{
				"index":6
			},
			"pbrMetallicRoughness":{
				"baseColorTexture":{
					"index":7
				},
				"metallicRoughnessTexture":{
					"index":8
				}
			}
		},
		{
			"doubleSided":true,
			"name":"Material_2",
			"normalTexture":{
				"index":9
			},
			"pbrMetallicRoughness":{
				"baseColorTexture":{
					"index":10
				},
				"metallicRoughnessTexture":{
					"index":11
				}
			}
		},
		{
			"doubleSided":true,
			"name":"Material_3",
			"normalTexture":{
				"index":12
			},
			"pbrMetallicRoughness":{
				"baseColorTexture":{
					"index":13
				},
				"metallicRoughnessTexture":{
					"index":14
				}
			}
		},
		{
			"doubleSided":true,
			"name":"Material_5",
			"normalTexture":{
				"index":15
			},
			"pbrMetallicRoughness":{
				"baseColorTexture":{
					"index":16
				},
				"metallicRoughnessTexture":{
					"index":17
				}
			}
		},
		{
			"doubleSided":true,
			"name":"Material_6",
			"normalTexture":{
				"index":18
			},
			"pbrMetallicRoughness":{
				"baseColorTexture":{
					"index":19
				},
				"metallicRoughnessTexture":{
					"index":20
				}
			}
		}
	],
	"meshes":[
		{
			"name":"Mesh_4",
			"primitives":[
				{
					"attributes":{
						"POSITION":0,
						"NORMAL":1,
						"TEXCOORD_0":2
					},
					"indices":3,
					"material":0
				},
				{
					"attributes":{
						"POSITION":4,
						"NORMAL":5,
						"TEXCOORD_0":6
					},
					"indices":7,
					"material":1
				},
				{
					"attributes":{
						"POSITION":8,
						"NORMAL":9,
						"TEXCOORD_0":10
					},
					"indices":7,
					"material":2
				},
				{
					"attributes":{
						"POSITION":11,
						"NORMAL":12,
						"TEXCOORD_0":13
					},
					"indices":14,
					"material":3
				},
				{
					"attributes":{
						"POSITION":15,
						"NORMAL":16,
						"TEXCOORD_0":17
					},
					"indices":14,
					"material":4
				},
				{
					"attributes":{
						"POSITION":18,
						"NORMAL":19,
						"TEXCOORD_0":20
					},
					"indices":21,
					"material":5
				},
				{
					"attributes":{
						"POSITION":22,
						"NORMAL":23,
						"TEXCOORD_0":24
					},
					"indices":25,
					"material":6
				}
			]
		}
	],
	"textures":[
		{
			"sampler":0,
			"source":0
		},
		{
			"sampler":0,
			"source":1
		},
		{
			"sampler":0,
			"source":2
		},
		{
			"sampler":0,
			"source":0
		},
		{
			"sampler":0,
			"source":1
		},
		{
			"sampler":0,
			"source":2
		},
		{
			"sampler":0,
			"source":0
		},
		{
			"sampler":0,
			"source":1
		},
		{
			"sampler":0,
			"source":2
		},
		{
			"sampler":0,
			"source":0
		},
		{
			"sampler":0,
			"source":1
		},
		{
			"sampler":0,
			"source":2
		},
		{
			"sampler":0,
			"source":0
		},
		{
			"sampler":0,
			"source":1
		},
		{
			"sampler":0,
			"source":2
		},
		{
			"sampler":0,
			"source":0
		},
		{
			"sampler":0,
			"source":1
		},
		{
			"sampler":0,
			"source":2
		},
		{
			"sampler":0,
			"source":0
		},
		{
			"sampler":0,
			"source":1
		},
		{
			"sampler":0,
			"source":2
		}
	],
	"images":[
		{
			"mimeType":"image/png",
			"name":"Normal",
			"uri":"Normal.png"
		},
		{
			"mimeType":"image/png",
			"name":"BaseColor",
			"uri":"BaseColor.png"
		},
		{
			"mimeType":"image/png",
			"name":"MetallicRoughness",
			"uri":"MetallicRoughness.png"
		}
	],
	"accessors":[
		{
			"bufferView":0,
			"componentType":5126,
			"count":2713,
			"max":[
				0.9879941940307617,
				0.14760001003742218,
				0.023999996483325958
			],
			"min":[
				0.7307941913604736,
				-0.14800001680850983,
				-0.024000002071261406
			],
			"type":"VEC3"
		},
		{
			"bufferView":1,
			"componentType":5126,
			"count":2713,
			"type":"VEC3"
		},
		{
			"bufferView":2,
			"componentType":5126,
			"count":2713,
			"type":"VEC2"
		},
		{
			"bufferView":3,
			"componentType":5123,
			"count":9672,
			"type":"SCALAR"
		},
		{
			"bufferView":4,
			"componentType":5126,
			"count":56,
			"max":[
				0.03040112368762493,
				0.14120009541511536,
				0.023999996483325958
			],
			"min":[
				-0.18719907104969025,
				-0.14160001277923584,
				-0.024000002071261406
			],
			"type":"VEC3"
		},
		{
			"bufferView":5,
			"componentType":5126,
			"count":56,
			"type":"VEC3"
		},
		{
			"bufferView":6,
			"componentType":5126,
			"count":56,
			"type":"VEC2"
		},
		{
			"bufferView":7,
			"componentType":5123,
			"count":132,
			"type":"SCALAR"
		},
		{
			"bufferView":8,
			"componentType":5126,
			"count":56,
			"max":[
				-0.1943972110748291,
				0.14120008051395416,
				0.024000002071261406
			],
			"min":[
				-0.41199740767478943,
				-0.14160002768039703,
				-0.024000002071261406
			],
			"type":"VEC3"
		},
		{
			"bufferView":9,
			"componentType":5126,
			"count":56,
			"type":"VEC3"
		},
		{
			"bufferView":10,
			"componentType":5126,
			"count":56,
			"type":"VEC2"
		},
		{
			"bufferView":11,
			"componentType":5126,
			"count":2262,
			"max":[
				0.3264036178588867,
				0.14960002899169922,
				0.023999996483325958
			],
			"min":[
				0.0436035618185997,
				-0.14960002899169922,
				-0.024000002071261406
			],
			"type":"VEC3"
		},
		{
			"bufferView":12,
			"componentType":5126,
			"count":2262,
			"type":"VEC3"
		},
		{
			"bufferView":13,
			"componentType":5126,
			"count":2262,
			"type":"VEC2"
		},
		{
			"bufferView":14,
			"componentType":5123,
			"count":8100,
			"type":"SCALAR"
		},
		{
			"bufferView":15,
			"componentType":5126,
			"count":2262,
			"max":[
				-0.4239988625049591,
				0.14960002899169922,
				0.023999996483325958
			],
			"min":[
				-0.7067989110946655,
				-0.14960002899169922,
				-0.024000002071261406
			],
			"type":"VEC3"
		},
		{
			"bufferView":16,
			"componentType":5126,
			"count":2262,
			"type":"VEC3"
		},
		{
			"bufferView":17,
			"componentType":5126,
			"count":2262,
			"type":"VEC2"
		},
		{
			"bufferView":18,
			"componentType":5126,
			"count":770,
			"max":[
				0.6828004717826843,
				0.14079999923706055,
				0.023999996483325958
			],
			"min":[
				0.3708004653453827,
				-0.14160001277923584,
				-0.024000002071261406
			],
			"type":"VEC3"
		},
		{
			"bufferView":19,
			"componentType":5126,
			"count":770,
			"type":"VEC3"
		},
		{
			"bufferView":20,
			"componentType":5126,
			"count":770,
			"type":"VEC2"
		},
		{
			"bufferView":21,
			"componentType":5123,
			"count":2022,
			"type":"SCALAR"
		},
		{
			"bufferView":22,
			"componentType":5126,
			"count":1827,
			"max":[
				-0.7455942034721375,
				0.14079999923706055,
				0.023999996483325958
			],
			"min":[
				-0.9879941940307617,
				-0.14160001277923584,
				-0.024000002071261406
			],
			"type":"VEC3"
		},
		{
			"bufferView":23,
			"componentType":5126,
			"count":1827,
			"type":"VEC3"
		},
		{
			"bufferView":24,
			"componentType":5126,
			"count":1827,
			"type":"VEC2"
		},
		{
			"bufferView":25,
			"componentType":5123,
			"count":6510,
			"type":"SCALAR"
		}
	],
	"bufferViews":[
		{
			"buffer":0,
			"byteLength":32556,
			"byteOffset":0,
			"target":34962
		},
		{
			"buffer":0,
			"byteLength":32556,
			"byteOffset":32556,
			"target":34962
		},
		{
			"buffer":0,
			"byteLength":21704,
			"byteOffset":65112,
			"target":34962
		},
		{
			"buffer":0,
			"byteLength":19344,
			"byteOffset":86816,
			"target":34963
		},
		{
			"buffer":0,
			"byteLength":672,
			"byteOffset":106160,
			"target":34962
		},
		{
			"buffer":0,
			"byteLength":672,
			"byteOffset":106832,
			"target":34962
		},
		{
			"buffer":0,
			"byteLength":448,
			"byteOffset":107504,
			"target":34962
		},
		{
			"buffer":0,
			"byteLength":264,
			"byteOffset":107952,
			"target":34963
		},
		{
			"buffer":0,
			"byteLength":672,
			"byteOffset":108216,
			"target":34962
		},
		{
			"buffer":0,
			"byteLength":672,
			"byteOffset":108888,
			"target":34962
		},
		{
			"buffer":0,
			"byteLength":448,
			"byteOffset":109560,
			"target":34962
		},
		{
			"buffer":0,
			"byteLength":27144,
			"byteOffset":110008,
			"target":34962
		},
		{
			"buffer":0,
			"byteLength":27144,
			"byteOffset":137152,
			"target":34962
		},
		{
			"buffer":0,
			"byteLength":18096,
			"byteOffset":164296,
			"target":34962
		},
		{
			"buffer":0,
			"byteLength":16200,
			"byteOffset":182392,
			"target":34963
		},
		{
			"buffer":0,
			"byteLength":27144,
			"byteOffset":198592,
			"target":34962
		},
		{
			"buffer":0,
			"byteLength":27144,
			"byteOffset":225736,
			"target":34962
		},
		{
			"buffer":0,
			"byteLength":18096,
			"byteOffset":252880,
			"target":34962
		},
		{
			"buffer":0,
			"byteLength":9240,
			"byteOffset":270976,
			"target":34962
		},
		{
			"buffer":0,
			"byteLength":9240,
			"byteOffset":280216,
			"target":34962
		},
		{
			"buffer":0,
			"byteLength":6160,
			"byteOffset":289456,
			"target":34962
		},
		{
			"buffer":0,
			"byteLength":4044,
			"byteOffset":295616,
			"target":34963
		},
		{
			"buffer":0,
			"byteLength":21924,
			"byteOffset":299660,
			"target":34962
		},
		{
			"buffer":0,
			"byteLength":21924,
			"byteOffset":321584,
			"target":34962
		},
		{
			"buffer":0,
			"byteLength":14616,
			"byteOffset":343508,
			"target":34962
		},
		{
			"buffer":0,
			"byteLength":13020,
			"byteOffset":358124,
			"target":34963
		}
	],
	"samplers":[
		{
			"magFilter":9729,
			"minFilter":9987
		}
	],
	"buffers":[
		{
			"byteLength":371144,
			"uri":"Bottoms_Green_dec.bin"
		}
	]
}
